<?xml version="1.0" encoding="UTF-8"?>
<svg id="_レイヤー_2" data-name="レイヤー 2" xmlns="http://www.w3.org/2000/svg" viewBox="0 0 532.128 196.292">
  <defs>
    <style>
      .cls-1 {
        fill: none;
      }

      .cls-1, .cls-2, .cls-3 {
        stroke-width: 0px;
      }

      .cls-2 {
        fill: #787878;
      }

      .cls-3 {
        fill: #fc927c;
      }
    </style>
  </defs>
  <g id="_レイヤー_2-2" data-name=" レイヤー 2">
    <g>
      <g>
        <g>
          <polygon class="cls-3" points="7.396 79.33 7.396 92.854 26.384 92.854 26.384 99.517 7.396 99.517 7.396 119.035 0 119.035 0 72.401 31.381 72.401 31.381 79.33 7.396 79.33"/>
          <path class="cls-3" d="m61.483,108.442h-21.787l-4.327,10.593h-7.931l19.721-46.634h6.863l19.723,46.634h-7.931l-4.331-10.593Zm-2.664-6.461l-5.996-14.592c-.999-2.53-2.131-6.063-2.198-6.063h-.067c-.067,0-1.199,3.533-2.2,6.063l-5.994,14.592h16.456Z"/>
          <path class="cls-3" d="m123.825,72.401v46.636h-7.262v-17.787c0-8.462.399-16.457.334-16.457h-.067c-.067,0-2.931,4.931-4.131,7.062l-9.063,15.657h-3.861l-9.063-15.657c-1.199-2.131-3.997-7.062-4.066-7.062h-.065c-.067,0,.264,7.996.264,16.457v17.787h-7.261v-46.636h6.93l10.593,17.855c3.863,6.397,4.531,7.996,4.597,7.996h.067c.067,0,.733-1.598,4.532-7.996l10.595-17.855h6.928Z"/>
          <rect class="cls-3" x="135.548" y="72.401" width="7.398" height="46.636"/>
          <polygon class="cls-3" points="186.048 112.108 186.048 119.036 154.667 119.036 154.667 72.4 162.064 72.4 162.064 112.108 186.048 112.108"/>
          <path class="cls-3" d="m221.625,72.401l-17.989,24.518v22.118h-7.331v-22.118l-17.987-24.518h8.328l10.595,14.324c1.264,1.665,2.664,3.598,2.731,3.598h.067c.067,0,1.465-1.932,2.664-3.598l10.596-14.324h8.326Z"/>
          <path class="cls-3" d="m275.281,85.726c-2.798-4.331-8.061-6.997-13.66-6.997-9.659,0-16.589,6.928-16.589,16.99,0,10.194,7.196,16.921,16.589,16.921,6.264,0,11.861-3.33,14.525-8.261l7.396,1.998c-3.932,8.263-12.193,13.593-21.921,13.593-13.392,0-24.184-10.194-24.184-24.251s10.791-24.252,24.184-24.252c9.128,0,16.99,4.864,21.188,12.26l-7.528,1.999Z"/>
          <polygon class="cls-3" points="322.448 112.108 322.448 119.036 291.067 119.036 291.067 72.4 298.464 72.4 298.464 112.108 322.448 112.108"/>
          <path class="cls-3" d="m366.934,72.401v26.85c0,13.457-7.396,20.72-19.656,20.72s-19.587-7.262-19.587-20.72v-26.85h7.396v26.783c0,9.394,4.131,13.925,12.191,13.925,8.131,0,12.325-4.531,12.325-13.925v-26.783h7.331Z"/>
          <path class="cls-3" d="m394.685,72.401c8.194,0,13.727,4.996,13.727,11.725,0,4.665-3.666,8.595-7.064,9.46v.069c4.463.731,9.86,5.462,9.86,11.525,0,7.994-5.463,13.856-15.789,13.856h-19.123v-46.636h18.39Zm-1.467,18.988c4.663,0,7.795-2.864,7.795-6.395,0-3.798-3.132-6.33-7.795-6.33h-9.525v12.726h9.525Zm1.533,21.386c5.129,0,8.794-3.065,8.794-7.795,0-4.662-3.997-7.86-8.994-7.86h-10.858v15.655h11.059Z"/>
        </g>
        <g>
          <path class="cls-2" d="m450.126,115.859h-3.141l-11.519-22.669h7.121l5.968,13.09,6.073-13.09h2.931l6.073,13.09,5.969-13.09h7.12l-11.518,22.669h-3.141l-5.969-13.349-5.968,13.349Z"/>
          <path class="cls-2" d="m502.123,109.524c-.681,1.675-3.246,7.069-11.151,7.069-3.666,0-6.439-1.047-8.692-3.195-2.512-2.354-3.559-5.288-3.559-8.847,0-4.502,1.832-7.278,3.455-8.9,2.67-2.618,5.811-3.193,8.534-3.193,4.607,0,7.277,1.833,8.847,3.717,2.409,2.88,2.723,6.439,2.723,8.9v.524h-16.963c0,1.36.367,2.827,1.099,3.821.681.943,2.095,2.148,4.555,2.148,2.408,0,4.24-1.152,5.288-2.984l5.864.941Zm-5.864-8.008c-.524-3.089-3.037-4.555-5.393-4.555s-4.816,1.518-5.34,4.555h10.733Z"/>
          <path class="cls-2" d="m513.595,96.121c2.251-3.14,5.444-3.664,7.381-3.664,6.701,0,11.151,5.183,11.151,12.04,0,6.912-4.607,12.095-11.308,12.095-1.467,0-4.764-.262-7.225-3.666v2.931h-6.387v-38.166h6.387v18.428Zm-.629,8.377c0,3.612,2.618,6.439,6.283,6.439s6.283-2.827,6.283-6.439-2.618-6.386-6.283-6.386-6.283,2.774-6.283,6.386Z"/>
        </g>
      </g>
      <path class="cls-1" d="m528.453,196.292H5.437V0h523.016v196.292Zm-522.016-.77h521.016V.77H6.437v194.753h0Z"/>
    </g>
  </g>
</svg>