<svg xmlns="http://www.w3.org/2000/svg" viewBox="0 0 70 70"><defs><style>.cls-1{fill:#f8f5ee;}.cls-2{fill:#fa907c;}</style></defs><g id="レイヤー_2" data-name="レイヤー 2"><g id="modal"><circle class="cls-1" cx="35" cy="35" r="35"/><path class="cls-2" d="M38.87,50.49h12a4,4,0,0,0,4-4V22.73a4,4,0,0,0-4-4H19.12a4,4,0,0,0-4,4V46.52a4,4,0,0,0,4,4h12l7.76,7.76Z"/><circle class="cls-1" cx="35" cy="35.19" r="10.59"/><circle class="cls-2" cx="35" cy="32.44" r="3.8"/><path class="cls-2" d="M31.91,48h9.32v-6a4.66,4.66,0,0,0-4.66-4.66H33.43a4.66,4.66,0,0,0-4.66,4.66v6Z"/></g></g></svg>