<svg xmlns="http://www.w3.org/2000/svg" viewBox="0 0 32 47.45"><defs><style>.cls-1{fill:#f8f5ee;}</style></defs><g id="レイヤー_2" data-name="レイヤー 2"><g id="modal"><path class="cls-1" d="M17.36,32.55a30.08,30.08,0,0,0,2.11,2.53C15.64,30.94,5.85,29.4,1.73,33.69c-2.66,2.78-2.08,6.93.58,9.48,2,1.87,4.9,2.16,7.6,2.34,4.14.29,8-.32,12.06-.11,3.58.18,6.84.08,10,2.05-2.93-8.52-2.72-17.8-1.08-30C32.29,7.28,28.51-.65,20.18,0c-5.26.44-8.81,5.17-9.86,8.33a21.55,21.55,0,0,0-.65,8.54c.72,5.91,4.1,10.89,7.69,15.64"/></g></g></svg>