<svg xmlns="http://www.w3.org/2000/svg" viewBox="0 0 75.58 70"><defs><style>.cls-1{fill:#f8f5ee;}.cls-2{fill:#fa907c;}.cls-3{fill:none;stroke:#f1cfc1;stroke-linecap:round;stroke-linejoin:round;stroke-width:1.63px;}</style></defs><g id="レイヤー_2" data-name="レイヤー 2"><g id="modal"><circle class="cls-1" cx="35" cy="35" r="35"/><polygon class="cls-2" points="11.06 53.02 13.3 58.34 19.06 58.83 14.69 62.61 16.01 68.24 11.06 65.25 6.12 68.24 7.43 62.61 3.06 58.83 8.82 58.34 11.06 53.02"/><path class="cls-2" d="M44.3,45.9h5.91V17.45a.24.24,0,0,0-.24-.24H20.44a.23.23,0,0,0-.23.24v36a.23.23,0,0,0,.23.23h22V47.76A1.86,1.86,0,0,1,44.3,45.9Z"/><path class="cls-2" d="M44.53,48.2v4.32L49.06,48H44.74A.22.22,0,0,0,44.53,48.2Z"/><line class="cls-3" x1="45.45" y1="43.03" x2="24.96" y2="43.03"/><line class="cls-3" x1="45.45" y1="38.27" x2="24.96" y2="38.27"/><line class="cls-3" x1="36.82" y1="47.78" x2="24.96" y2="47.78"/><rect class="cls-3" x="24.96" y="21.97" width="20.5" height="11.99"/><polygon class="cls-2" points="63.42 1.19 66.83 9.28 75.58 10.02 68.93 15.77 70.94 24.32 63.42 19.78 55.9 24.32 57.9 15.77 51.25 10.02 60.01 9.28 63.42 1.19"/></g></g></svg>