<svg xmlns="http://www.w3.org/2000/svg" viewBox="0 0 60 60"><defs><style>.cls-1{fill:#fff;}.cls-2{fill:#fdb2a3;}</style></defs><g id="レイヤー_2" data-name="レイヤー 2"><g id="modal"><circle class="cls-1" cx="30" cy="30" r="30"/><path class="cls-2" d="M48.86,20.27a14.69,14.69,0,0,1-4.16,1.14,7.25,7.25,0,0,0,3.18-4,14.53,14.53,0,0,1-4.6,1.76,7.24,7.24,0,0,0-12.51,4.95A7.65,7.65,0,0,0,31,25.76,20.57,20.57,0,0,1,16,18.24a7.23,7.23,0,0,0,2.22,9.63A7.1,7.1,0,0,1,15,27v.09a7.24,7.24,0,0,0,5.81,7.1,7.38,7.38,0,0,1-3.27.12,7.24,7.24,0,0,0,6.76,5,14.56,14.56,0,0,1-9,3.08,14.17,14.17,0,0,1-1.72-.1,20.44,20.44,0,0,0,11.11,3.25c13.35,0,20.6-11,20.6-20.59V24A14.68,14.68,0,0,0,48.86,20.27Z"/></g></g></svg>