<svg xmlns="http://www.w3.org/2000/svg" viewBox="0 0 70 70"><defs><style>.cls-1{fill:#f8f5ee;}.cls-2{fill:#fa907c;}</style></defs><g id="レイヤー_2" data-name="レイヤー 2"><g id="modal"><circle class="cls-1" cx="35" cy="35" r="35"/><path class="cls-2" d="M34,28,17.56,47.75l4.18,4.18L41.49,35.51ZM21.74,51.93,41.49,35.51"/><path class="cls-2" d="M17.57,47.74,34,28l7.49,7.51L21.74,51.91Z"/><path class="cls-2" d="M34.69,26l8.82,8.81a8.83,8.83,0,0,0,6.13-2.37L37.07,19.86A8.86,8.86,0,0,0,34.69,26Z"/><path class="cls-2" d="M43.51,34.79,34.7,26a8.83,8.83,0,0,1,2.38-6.1L49.63,32.44a9,9,0,0,1-6,2.35Z"/><path class="cls-2" d="M49.89,19.6A8.9,8.9,0,0,0,39,18.3L51.2,30.52A8.91,8.91,0,0,0,49.89,19.6Z"/><path class="cls-2" d="M39,18.28A9.22,9.22,0,0,1,43.61,17,8.87,8.87,0,0,1,51.19,30.5Z"/><rect class="cls-2" x="33.55" y="38.16" width="3.21" height="14.84"/></g></g></svg>