<svg xmlns="http://www.w3.org/2000/svg" viewBox="0 0 70 70"><defs><style>.cls-1{fill:#f8f5ee;}.cls-2,.cls-3{fill:#fa907c;}.cls-2{stroke:#fa907c;stroke-linecap:round;stroke-linejoin:round;stroke-width:0.9px;}</style></defs><g id="レイヤー_2" data-name="レイヤー 2"><g id="modal"><circle class="cls-1" cx="35" cy="35" r="35"/><path class="cls-2" d="M51.87,20.07a2.46,2.46,0,0,0-3.48-3.48L32.23,32.75a2.46,2.46,0,0,0,3.48,3.47Z"/><path class="cls-2" d="M32.9,38.79A2.22,2.22,0,0,0,36,41.93l11-11a2.22,2.22,0,0,0-3.14-3.14Z"/><path class="cls-2" d="M35.2,42.77a2.22,2.22,0,0,0,3.15,3.14l11-11a2.22,2.22,0,0,0-3.14-3.14Z"/><path class="cls-2" d="M38.94,45.31a2.22,2.22,0,0,0,3.15,3.14l9.57-9.58a2.22,2.22,0,1,0-3.14-3.14Z"/><path class="cls-2" d="M42.27,48.26a5.6,5.6,0,0,1-2.11,1.58,5.52,5.52,0,0,0-1.87.9l-9.68-9.67,1-1c.4-.41.76-.93.4-2.25s-1.29-4.1-1.14-5.44.72-3.9-.07-5.68-2.39-3.07-1.58-4.64,3.19-1.06,4.66.28a8.86,8.86,0,0,1,2.57,5.74c.18,2.27.82,1.63,1.6.85s2.05,2,2.05,2Z"/><rect class="cls-3" x="23.53" y="43.37" width="9.77" height="15.54" rx="1.02" transform="translate(-27.84 35.07) rotate(-45)"/></g></g></svg>