<svg xmlns="http://www.w3.org/2000/svg" viewBox="0 0 60 60"><defs><style>.cls-1{fill:#fff;}.cls-2{fill:#fdb2a3;}</style></defs><g id="レイヤー_2" data-name="レイヤー 2"><g id="modal"><circle class="cls-1" cx="30" cy="30" r="30"/><path class="cls-2" d="M50,28.25C50,19.29,41,12,30,12S10,19.29,10,28.25c0,8,7.13,14.77,16.75,16,.65.14,1.54.43,1.77,1a4.09,4.09,0,0,1,.06,1.81s-.23,1.41-.29,1.71c-.08.51-.4,2,1.74,1.08s11.53-6.79,15.74-11.63h0C48.62,35.07,50,31.84,50,28.25Z"/><path class="cls-1" d="M43.34,33.43a.38.38,0,0,0,.39-.38V31.62a.39.39,0,0,0-.39-.38H39.52V29.77h3.82a.38.38,0,0,0,.39-.39V28a.39.39,0,0,0-.39-.38H39.52V26.11h3.82a.38.38,0,0,0,.39-.39V24.3a.39.39,0,0,0-.39-.38H37.72a.38.38,0,0,0-.38.38h0V33h0a.38.38,0,0,0,.38.38h5.62Z"/><path class="cls-1" d="M22.53,33.43a.38.38,0,0,0,.38-.38V31.62a.38.38,0,0,0-.38-.38H18.71V24.3a.38.38,0,0,0-.39-.38H16.9a.38.38,0,0,0-.38.38V33h0a.38.38,0,0,0,.38.38h5.63Z"/><rect class="cls-1" x="24.12" y="23.92" width="2.19" height="9.51" rx="0.38"/><path class="cls-1" d="M35.59,23.92H34.17a.39.39,0,0,0-.39.38v5.2l-4-5.4,0,0h0l0,0h0l0,0h0l0,0H28.05a.38.38,0,0,0-.38.38v8.75a.38.38,0,0,0,.38.38h1.42a.38.38,0,0,0,.38-.38V27.86l4,5.4a.43.43,0,0,0,.09.1h0l0,0h.1l.1,0h1.41a.38.38,0,0,0,.38-.38V24.3A.38.38,0,0,0,35.59,23.92Z"/></g></g></svg>