<svg xmlns="http://www.w3.org/2000/svg" viewBox="0 0 45 45"><defs><style>.cls-1{fill:#555;}.cls-2{fill:#fff;}</style></defs><g id="レイヤー_2" data-name="レイヤー 2"><g id="design"><circle class="cls-1" cx="22.5" cy="22.5" r="22.5"/><path class="cls-2" d="M37.51,21.19c0-6.72-6.74-12.19-15-12.19s-15,5.47-15,12.19c0,6,5.35,11.07,12.57,12,.49.1,1.15.32,1.32.74a3.08,3.08,0,0,1,0,1.35l-.22,1.29c-.06.38-.3,1.49,1.3.81s8.65-5.09,11.81-8.72h0A10.88,10.88,0,0,0,37.51,21.19Z"/><path class="cls-1" d="M32.51,25.07a.29.29,0,0,0,.29-.29V23.72a.29.29,0,0,0-.29-.29H29.64v-1.1h2.87A.29.29,0,0,0,32.8,22V21a.29.29,0,0,0-.29-.28H29.64V19.58h2.87a.29.29,0,0,0,.29-.29V18.23a.29.29,0,0,0-.29-.29H28.29a.29.29,0,0,0-.29.29h0v6.54h0a.29.29,0,0,0,.29.29h4.22Z"/><path class="cls-1" d="M16.9,25.07a.29.29,0,0,0,.29-.29V23.72a.29.29,0,0,0-.29-.29H14v-5.2a.29.29,0,0,0-.29-.29H12.68a.29.29,0,0,0-.29.29v6.55h0a.29.29,0,0,0,.29.29H16.9Z"/><rect class="cls-1" x="18.09" y="17.94" width="1.64" height="7.13" rx="0.29"/><path class="cls-1" d="M26.69,17.94H25.63a.29.29,0,0,0-.29.29v3.89l-3-4.05s0,0,0,0h0v0h0v0H21a.29.29,0,0,0-.29.29v6.55a.29.29,0,0,0,.29.29H22.1a.29.29,0,0,0,.29-.29V20.89l3,4.06a.27.27,0,0,0,.08.07h1.22a.29.29,0,0,0,.29-.29V18.23A.29.29,0,0,0,26.69,17.94Z"/></g></g></svg>