<svg xmlns="http://www.w3.org/2000/svg" viewBox="0 0 45 45"><defs><style>.cls-1{fill:#555;}.cls-2{fill:#fff;}</style></defs><g id="レイヤー_2" data-name="レイヤー 2"><g id="design"><circle class="cls-1" cx="22.5" cy="22.5" r="22.5"/><path class="cls-2" d="M36.64,15.2a10.9,10.9,0,0,1-3.11.86,5.44,5.44,0,0,0,2.38-3,11,11,0,0,1-3.45,1.32,5.43,5.43,0,0,0-9.38,3.71,5.74,5.74,0,0,0,.13,1.24A15.42,15.42,0,0,1,12,13.68a5.42,5.42,0,0,0,1.67,7.22,5.46,5.46,0,0,1-2.47-.67v.07a5.45,5.45,0,0,0,4.36,5.32,5.63,5.63,0,0,1-2.45.09,5.43,5.43,0,0,0,5.07,3.77,10.89,10.89,0,0,1-6.74,2.31,11.15,11.15,0,0,1-1.29-.07A15.45,15.45,0,0,0,34,18.71V18A10.89,10.89,0,0,0,36.64,15.2Z"/></g></g></svg>