<svg xmlns="http://www.w3.org/2000/svg" viewBox="0 0 144.08 123"><defs><style>.cls-1{fill:#fff0ec;stroke:#fc927c;stroke-linecap:round;stroke-linejoin:round;stroke-width:3px;}</style></defs><g id="レイヤー_2" data-name="レイヤー 2"><g id="design"><polygon class="cls-1" points="142.58 1.5 22.58 1.5 22.58 121.5 112.58 121.5 142.58 91.5 142.58 1.5"/><polygon class="cls-1" points="112.58 121.5 142.58 91.5 112.58 91.5 112.58 121.5"/><rect class="cls-1" x="42.58" y="21.5" width="18.16" height="18.16"/><rect class="cls-1" x="42.58" y="53.66" width="18.16" height="18.16"/><line class="cls-1" x1="72.74" y1="25.5" x2="122.58" y2="25.5"/><line class="cls-1" x1="122.58" y1="35.66" x2="72.74" y2="35.66"/><line class="cls-1" x1="72.74" y1="57.66" x2="122.58" y2="57.66"/><line class="cls-1" x1="122.58" y1="67.81" x2="72.74" y2="67.81"/><rect class="cls-1" x="2.81" y="43.31" width="18.26" height="11.26" transform="translate(-31.11 22.78) rotate(-45)"/><polygon class="cls-1" points="64.57 101.57 44.58 94.5 57.5 81.59 64.57 101.57"/><rect class="cls-1" x="24.35" y="45.65" width="18.26" height="49.67" transform="translate(-40.03 44.32) rotate(-45)"/></g></g></svg>