<svg xmlns="http://www.w3.org/2000/svg" xmlns:xlink="http://www.w3.org/1999/xlink" viewBox="0 0 123 123"><defs><style>.cls-1,.cls-2{fill:#fff0ec;}.cls-1,.cls-4{stroke:#fc927c;stroke-linecap:round;stroke-linejoin:round;stroke-width:3px;}.cls-3{clip-path:url(#clip-path);}.cls-4{fill:none;}</style><clipPath id="clip-path"><circle class="cls-1" cx="61.5" cy="54.5" r="32"/></clipPath></defs><g id="レイヤー_2" data-name="レイヤー 2"><g id="design"><path class="cls-1" d="M73.19,104.09H109.5a12,12,0,0,0,12-12V13.5a12,12,0,0,0-12-12h-96a12,12,0,0,0-12,12V92.09a12,12,0,0,0,12,12H55.78L73.19,121.5Z"/><circle class="cls-2" cx="61.5" cy="54.5" r="32"/><g class="cls-3"><circle class="cls-1" cx="61.5" cy="44.52" r="11.48"/><path class="cls-1" d="M53.9,94.73H76.82V73.13A11.47,11.47,0,0,0,65.36,61.66H57.64A11.47,11.47,0,0,0,46.18,73.13v21.6Z"/></g><circle class="cls-4" cx="61.5" cy="54.5" r="32"/></g></g></svg>